<svg xmlns="http://www.w3.org/2000/svg" xmlns:svgjs="http://svgjs.com/svgjs" xmlns:xlink="http://www.w3.org/1999/xlink" width="288" height="288"><svg xmlns="http://www.w3.org/2000/svg" width="288" height="288" enable-background="new 0 0 32 32" viewBox="0 0 32 32"><line x1="21" x2="21" y1="15" y2="11" fill="none" stroke="#43cc88" stroke-linecap="round" stroke-linejoin="round" stroke-miterlimit="10" stroke-width="2" class="colorStroke000 svgStroke"/><polyline fill="none" stroke="#000" stroke-linecap="round" stroke-linejoin="round" stroke-miterlimit="10" stroke-width="2" points="23 12.1 21 10 19 12.1"/><path fill="none" stroke="#43cc88" stroke-linecap="round" stroke-linejoin="round" stroke-miterlimit="10" stroke-width="2" d="M3,24l2.6-4.2c1.5-2.3,4-3.8,6.8-3.8H19v0c0,2.2-1.8,4-4,4h-2" class="colorStroke000 svgStroke"/><path fill="none" stroke="#43cc88" stroke-linecap="round" stroke-linejoin="round" stroke-miterlimit="10" stroke-width="2" d="M15,20h8l1.2-1.6c1.1-1.5,2.9-2.4,4.8-2.4h0l-2.7,4.8c-1.4,2.6-4.2,4.2-7.1,4.2h0c-4.7,0-9.3,1.4-13.2,4l0,0" class="colorStroke000 svgStroke"/><path fill="none" stroke="#43cc88" stroke-linecap="round" stroke-linejoin="round" stroke-miterlimit="10" stroke-width="2" d="M26,16.8V5c0-0.6-0.4-1-1-1h-5v3h-4V4h-5c-0.6,0-1,0.4-1,1v11" class="colorStroke000 svgStroke"/><line x1="16" x2="20" y1="4" y2="4" fill="none" stroke="#43cc88" stroke-linecap="round" stroke-linejoin="round" stroke-miterlimit="10" stroke-width="2" class="colorStroke000 svgStroke"/><rect width="536" height="680" x="-144" y="-504" fill="none"/></svg></svg>