<?xml version="1.0" encoding="UTF-8" standalone="no"?> <svg width="64" height="64" viewBox="0 0 64 64" fill="none" xmlns="http://www.w3.org/2000/svg">
<path d="M26 5C25.4067 5 24.8266 5.17595 24.3333 5.50559C23.8399 5.83524 23.4554 6.30377 23.2284 6.85195C23.0013 7.40013 22.9419 8.00333 23.0576 8.58527C23.1734 9.16721 23.4591 9.70176 23.8787 10.1213C24.2982 10.5409 24.8328 10.8266 25.4147 10.9424C25.9967 11.0581 26.5999 10.9987 27.1481 10.7716C27.6962 10.5446 28.1648 10.1601 28.4944 9.66671C28.8241 9.17336 29 8.59334 29 8C29 7.20435 28.6839 6.44129 28.1213 5.87868C27.5587 5.31607 26.7957 5 26 5ZM26 9C25.8022 9 25.6089 8.94135 25.4444 8.83147C25.28 8.72159 25.1518 8.56541 25.0761 8.38268C25.0004 8.19996 24.9806 7.99889 25.0192 7.80491C25.0578 7.61093 25.153 7.43275 25.2929 7.29289C25.4327 7.15304 25.6109 7.0578 25.8049 7.01921C25.9989 6.98063 26.2 7.00043 26.3827 7.07612C26.5654 7.15181 26.7216 7.27998 26.8315 7.44443C26.9414 7.60888 27 7.80222 27 8C27 8.26522 26.8946 8.51957 26.7071 8.70711C26.5196 8.89464 26.2652 9 26 9Z" fill="green"/>
<path d="M34 46C34 46.7956 33.6839 47.5587 33.1213 48.1213C32.5587 48.6839 31.7956 49 31 49C30.2044 49 29.4413 48.6839 28.8787 48.1213C28.3161 47.5587 28 46.7956 28 46V44H26V46C26 47.3261 26.5268 48.5979 27.4645 49.5355C28.4021 50.4732 29.6739 51 31 51C32.3261 51 33.5979 50.4732 34.5355 49.5355C35.4732 48.5979 36 47.3261 36 46V44H34V46Z" fill="black"/>
<path d="M58.9 32H56V30C56 27.8782 55.1571 25.8434 53.6569 24.3431C52.1566 22.8428 50.1217 22 48 22C45.8783 22 43.8434 22.8428 42.3431 24.3431C40.8429 25.8434 40 27.8782 40 30V32H37.1L36.24 40H22.14L19.74 56H8V14H15C15 14.5304 15.2107 15.0391 15.5858 15.4142C15.9609 15.7893 16.4696 16 17 16H35C35.5304 16 36.0391 15.7893 36.4142 15.4142C36.7893 15.0391 37 14.5304 37 14H44V21H46V12H37V9.99998H47C47.2652 9.99998 47.5196 10.1053 47.7071 10.2929C47.8946 10.4804 48 10.7348 48 11V21H50V11C50 10.2043 49.6839 9.44127 49.1213 8.87866C48.5587 8.31605 47.7956 7.99998 47 7.99998H37C37 7.46955 36.7893 6.96084 36.4142 6.58577C36.0391 6.21069 35.5304 5.99998 35 5.99998H31.57C31.3732 5.98896 31.1847 5.91715 31.0305 5.79446C30.8763 5.67176 30.764 5.50423 30.709 5.31498C30.3623 4.34361 29.7236 3.50323 28.8806 2.90902C28.0376 2.31481 27.0314 1.99585 26 1.99585C24.9686 1.99585 23.9624 2.31481 23.1194 2.90902C22.2764 3.50323 21.6377 4.34361 21.291 5.31498C21.236 5.50423 21.1237 5.67176 20.9695 5.79446C20.8153 5.91715 20.6268 5.98896 20.43 5.99998H17C16.4696 5.99998 15.9609 6.21069 15.5858 6.58577C15.2107 6.96084 15 7.46955 15 7.99998H5C4.20435 7.99998 3.44129 8.31605 2.87868 8.87866C2.31607 9.44127 2 10.2043 2 11V59C2 59.7956 2.31607 60.5587 2.87868 61.1213C3.44129 61.6839 4.20435 62 5 62H62.113L58.9 32ZM17 7.99998H20.43C21.04 7.99291 21.6325 7.79523 22.1246 7.43462C22.6166 7.07401 22.9836 6.56854 23.174 5.98898C23.3818 5.40575 23.765 4.90109 24.2709 4.54424C24.7769 4.18738 25.3809 3.99582 26 3.99582C26.6191 3.99582 27.2231 4.18738 27.7291 4.54424C28.235 4.90109 28.6182 5.40575 28.826 5.98898C29.0164 6.56854 29.3834 7.07401 29.8754 7.43462C30.3675 7.79523 30.96 7.99291 31.57 7.99998H35V14H17V7.99998ZM42 30C42 28.4087 42.6321 26.8826 43.7574 25.7573C44.8826 24.6321 46.4087 24 48 24C49.5913 24 51.1174 24.6321 52.2426 25.7573C53.3679 26.8826 54 28.4087 54 30V32H50V26H48V32H46V27H44V32H42V30ZM5 60C4.73478 60 4.48043 59.8946 4.29289 59.7071C4.10536 59.5196 4 59.2652 4 59V11C4 10.7348 4.10536 10.4804 4.29289 10.2929C4.48043 10.1053 4.73478 9.99998 5 9.99998H15V12H6V58H19.439L19.139 60H5ZM35 60H21.161L23.861 42H38.139L40.839 60H35ZM42.861 60L39.861 40H38.253L38.898 34H40V37H42V34H54V37H56V34H57.1L59.885 60H42.861Z" fill="black"/>
<path d="M21.793 17.793L19.586 20H10V30H20V22.414L23.207 19.207L21.793 17.793ZM18 28H12V22H17.586L15 24.586L13.707 23.293L12.293 24.707L15 27.414L18 24.414V28Z" fill="black"/>
<path d="M20 34.414L23.207 31.207L21.793 29.793L19.586 32H10V42H20V34.414ZM12 40V34H17.586L15 36.586L13.707 35.293L12.293 36.707L15 39.414L18 36.414V40H12Z" fill="black"/>
<path d="M10 54H20V44H10V54ZM12 46H18V52H12V46Z" fill="black"/>
<path d="M34 22H24V24H34V22Z" fill="black"/>
<path d="M34 26H24V28H34V26Z" fill="black"/>
<path d="M34 35H24V37H34V35Z" fill="black"/>
</svg>
