<?xml version="1.0" encoding="UTF-8" standalone="no"?> <svg id="Layer_1" data-name="Layer 1" xmlns="http://www.w3.org/2000/svg" viewBox="0 0 512 512"><title>Package</title><path d="M462.807,128.836,260.141,43.5a10.673,10.673,0,0,0-8.281,0L49.193,128.836a10.67,10.67,0,0,0-6.526,9.831V373.333a10.674,10.674,0,0,0,6.526,9.833L251.859,468.5a10.7,10.7,0,0,0,8.281,0l202.667-85.333a10.674,10.674,0,0,0,6.526-9.833V138.667A10.67,10.67,0,0,0,462.807,128.836ZM256,212.427l-79.895-33.64,174.108-73.308a10.5,10.5,0,0,0,.935-.51l80.03,33.7Zm0-147.521,67.8,28.547L150.526,166.409a10.619,10.619,0,0,0-1.663.907L80.822,138.667ZM64,154.732l181.333,76.351V442.6L64,366.25ZM266.667,442.6V231.083L448,154.732V366.25Z"/></svg>