<?xml version="1.0" encoding="UTF-8" standalone="no"?> <svg xmlns="http://www.w3.org/2000/svg" viewBox="0 0 64 64"><g id="Layer_24" data-name="Layer 24"><path d="M60.92,40.79,55.25,27a1,1,0,0,0-.92-.62H43.82a1,1,0,0,0-1,1V45.6H40.43V19.17a1,1,0,0,0-1-1h-5A12.73,12.73,0,0,0,9,18.17H4a1,1,0,0,0-1,1V51a1,1,0,0,0,1,1H6.68a5.44,5.44,0,0,0,10.7,0h2.39a5.44,5.44,0,0,0,10.7,0H46.65a5.44,5.44,0,0,0,10.7,0H60a1,1,0,0,0,1-1V41.17A1,1,0,0,0,60.92,40.79Zm-2.41-.62h-7V28.38h2.2ZM42.82,50H30.47a5.48,5.48,0,0,0-1.08-2.36H42.82Zm-23,0H17.38a5.47,5.47,0,0,0-1.07-2.36h4.53A5.47,5.47,0,0,0,19.77,50ZM21.71,8.42A10.75,10.75,0,1,1,11,19.17,10.76,10.76,0,0,1,21.71,8.42ZM5,20.17H9a12.73,12.73,0,0,0,25.39,0h4V45.51H5ZM5,47.6H7.76A5.48,5.48,0,0,0,6.68,50H5Zm7,6.8a3.44,3.44,0,0,1-.77-6.8H12.8A3.44,3.44,0,0,1,12,54.4Zm13.08,0a3.44,3.44,0,0,1-.77-6.8h1.54a3.44,3.44,0,0,1-.77,6.8ZM52,54.4A3.45,3.45,0,1,1,55.45,51,3.45,3.45,0,0,1,52,54.4ZM57.35,50a5.44,5.44,0,0,0-10.7,0H44.82V28.38h4.64V41.17a1,1,0,0,0,1,1H59V50Z"/><path d="M19,24.41a1,1,0,0,0,.76.35h0a1,1,0,0,0,.77-.4l7-9.18a1,1,0,1,0-1.6-1.2l-6.2,8.18-3.25-3.82A1,1,0,1,0,15,19.63Z"/></g></svg>