<?xml version="1.0" encoding="utf-8"?>
<!-- Generator: Adobe Illustrator 26.3.1, SVG Export Plug-In . SVG Version: 6.00 Build 0)  -->
<svg version="1.1" id="Layer_1" xmlns="http://www.w3.org/2000/svg" xmlns:xlink="http://www.w3.org/1999/xlink" x="0px" y="0px"
	 viewBox="0 0 178 178" style="enable-background:new 0 0 178 178;" xml:space="preserve">
<style type="text/css">
	.st0{clip-path:url(#SVGID_00000066479262480974574140000014570619531404945038_);}
	.st1{opacity:5.200000e-02;fill:#832729;enable-background:new    ;}
	.st2{fill:#908E8A;}
	.st3{fill:#FFFFFF;}
</style>
<g>
	<defs>
		<rect id="SVGID_1_" width="178" height="178"/>
	</defs>
	<clipPath id="SVGID_00000178893725438582742400000000113715683904245170_">
		<use xlink:href="#SVGID_1_"  style="overflow:visible;"/>
	</clipPath>
	<g id="Bag_Icon" style="clip-path:url(#SVGID_00000178893725438582742400000000113715683904245170_);">
		<g id="Group_1" transform="translate(-871 -318)">
			<circle id="Ellipse_7" class="st1" cx="960.5" cy="407.5" r="87.5"/>
			<g id="noun-shop-bag-3002040" transform="translate(759.074 314.32)">
				<path id="Path_328" class="st2" d="M147.6,146.1l27.8,14.9h0.2c0.2,0.1,0.3,0.1,0.5,0.1c0.1,0,0.2,0,0.3,0l77.8-19.9
					c0.7-0.2,1.1-0.8,1.1-1.5l-8.1-84.8l0,0c0-0.2-0.1-0.3-0.1-0.5c-0.1-0.1-0.2-0.2-0.3-0.3l-0.1-0.1l-0.1-0.1L232,45.6
					c-0.7-0.4-1.6-0.1-2,0.6c-0.4,0.7-0.1,1.6,0.5,2l11.1,6.2L225,58.1c-1.2-12.1-3.8-26.1-9.3-30.8c-1.6-1.4-3.8-2-5.9-1.6
					c-9.6,1.7-13,22.4-14.2,39l-19.8,4.4l-16.4-13.4l33.5-7.5l0,0c0.7-0.4,1.1-1.3,0.7-2c-0.2-0.5-0.8-0.8-1.3-0.8l-12.2,2.7
					c1.2-7,4.2-16.5,8.3-17.8c1.9-0.6,4.3,0.7,7,3.8l0,0c0.6,0.6,1.5,0.6,2.1,0c0.6-0.5,0.6-1.4,0.1-2c-3.5-4.1-6.9-5.7-10.1-4.7
					c-7.2,2.1-10,17-10.6,21.4l-21.2,4.7c-0.1,0-0.3,0.1-0.4,0.1c-0.1,0.1-0.3,0.2-0.4,0.3l-0.1,0.1l0,0c-0.1,0.1-0.2,0.3-0.2,0.4
					c0,0.1,0,0.3,0,0.4c-0.6,3.3-2.3,18.1-7.6,89.6C146.9,145.2,147.1,145.8,147.6,146.1L147.6,146.1z M210.3,28.6L210.3,28.6
					c1.2-0.2,2.5,0.1,3.4,1c4.7,3.9,7.1,17,8.3,29.2L198.6,64C199.9,47.8,203.1,29.9,210.3,28.6L210.3,28.6z M194.9,84.9
					c0,0.8,0.7,1.5,1.5,1.5s1.5-0.7,1.5-1.5c0-4.4,0-10.8,0.5-17.8l23.9-5.4c0.5,6.4,0.7,12.3,0.7,16.1l0,0c0,0.8,0.7,1.5,1.5,1.5
					s1.5-0.7,1.5-1.5c0-0.7,0-7.9-0.7-16.7l19.2-4.3l7.9,81.9l-74.7,19.2l-0.8-85.9l18.4-4.1C194.8,76.2,194.8,83,194.9,84.9
					L194.9,84.9z M157,57.7l16.9,13.7l0.8,85.8l-24.8-13.3C152.2,113,155.7,68.3,157,57.7L157,57.7z"/>
				<path id="Line_243" class="st2" d="M204.6,124.7c-0.7,0-1.3-0.5-1.5-1.1c-0.2-0.8,0.3-1.6,1.1-1.8l27-7c0.8-0.2,1.6,0.3,1.8,1.1
					c0.2,0.8-0.3,1.6-1.1,1.8l-27,7C204.8,124.7,204.7,124.7,204.6,124.7z"/>
				<circle id="Ellipse_8" class="st3" cx="205.1" cy="105.7" r="4"/>
				<path id="Ellipse_8_-_Outline" class="st2" d="M205.1,104.7c-0.6,0-1,0.4-1,1s0.4,1,1,1s1-0.4,1-1S205.6,104.7,205.1,104.7
					 M205.1,101.7c2.2,0,4,1.8,4,4s-1.8,4-4,4s-4-1.8-4-4S202.9,101.7,205.1,101.7z"/>
				<circle id="Ellipse_9" class="st3" cx="223.1" cy="101.7" r="4"/>
				<path id="Ellipse_9_-_Outline" class="st2" d="M223.1,100.7c-0.6,0-1,0.4-1,1s0.4,1,1,1s1-0.4,1-1S223.6,100.7,223.1,100.7
					 M223.1,97.7c2.2,0,4,1.8,4,4s-1.8,4-4,4s-4-1.8-4-4S220.9,97.7,223.1,97.7z"/>
			</g>
		</g>
	</g>
</g>
</svg>
